<svg xmlns="http://www.w3.org/2000/svg" xmlns:xlink="http://www.w3.org/1999/xlink" width="500" zoomAndPan="magnify" viewBox="0 0 375 374.999991" height="500" preserveAspectRatio="xMidYMid meet" version="1.0"><defs><g/><clipPath id="8d1045693b"><path d="M 0 0.015625 L 374.992188 0.015625 L 374.992188 375 L 0 375 Z M 0 0.015625 " clip-rule="nonzero"/></clipPath><linearGradient x1="499.681498" gradientTransform="matrix(0.75, 0, 0, 0.75, 0.225005, 0.07501)" y1="499.908447" x2="-0.30402" gradientUnits="userSpaceOnUse" y2="-0.075993" id="d275760954"><stop stop-opacity="1" stop-color="rgb(36.898804%, 8.999634%, 92.199707%)" offset="0"/><stop stop-opacity="1" stop-color="rgb(36.898804%, 8.999634%, 92.199707%)" offset="0.03125"/><stop stop-opacity="1" stop-color="rgb(36.863708%, 9.007263%, 92.082214%)" offset="0.0390625"/><stop stop-opacity="1" stop-color="rgb(36.613464%, 9.068298%, 91.235352%)" offset="0.0429687"/><stop stop-opacity="1" stop-color="rgb(36.398315%, 9.121704%, 90.507507%)" offset="0.046875"/><stop stop-opacity="1" stop-color="rgb(36.181641%, 9.173584%, 89.778137%)" offset="0.0507812"/><stop stop-opacity="1" stop-color="rgb(35.966492%, 9.225464%, 89.048767%)" offset="0.0546875"/><stop stop-opacity="1" stop-color="rgb(35.749817%, 9.277344%, 88.319397%)" offset="0.0585937"/><stop stop-opacity="1" stop-color="rgb(35.534668%, 9.33075%, 87.590027%)" offset="0.0625"/><stop stop-opacity="1" stop-color="rgb(35.317993%, 9.382629%, 86.860657%)" offset="0.0664062"/><stop stop-opacity="1" stop-color="rgb(35.102844%, 9.436035%, 86.131287%)" offset="0.0703125"/><stop stop-opacity="1" stop-color="rgb(34.886169%, 9.487915%, 85.401917%)" offset="0.0742188"/><stop stop-opacity="1" stop-color="rgb(34.671021%, 9.541321%, 84.672546%)" offset="0.078125"/><stop stop-opacity="1" stop-color="rgb(34.454346%, 9.593201%, 83.943176%)" offset="0.0820312"/><stop stop-opacity="1" stop-color="rgb(34.239197%, 9.646606%, 83.213806%)" offset="0.0859375"/><stop stop-opacity="1" stop-color="rgb(34.022522%, 9.698486%, 82.484436%)" offset="0.0898437"/><stop stop-opacity="1" stop-color="rgb(33.807373%, 9.751892%, 81.755066%)" offset="0.09375"/><stop stop-opacity="1" stop-color="rgb(33.590698%, 9.803772%, 81.025696%)" offset="0.0976562"/><stop stop-opacity="1" stop-color="rgb(33.375549%, 9.855652%, 80.296326%)" offset="0.101562"/><stop stop-opacity="1" stop-color="rgb(33.158875%, 9.907532%, 79.566956%)" offset="0.105469"/><stop stop-opacity="1" stop-color="rgb(32.943726%, 9.960938%, 78.837585%)" offset="0.109375"/><stop stop-opacity="1" stop-color="rgb(32.727051%, 10.012817%, 78.108215%)" offset="0.113281"/><stop stop-opacity="1" stop-color="rgb(32.511902%, 10.066223%, 77.378845%)" offset="0.117187"/><stop stop-opacity="1" stop-color="rgb(32.295227%, 10.118103%, 76.649475%)" offset="0.121094"/><stop stop-opacity="1" stop-color="rgb(32.080078%, 10.171509%, 75.920105%)" offset="0.125"/><stop stop-opacity="1" stop-color="rgb(31.863403%, 10.223389%, 75.190735%)" offset="0.128906"/><stop stop-opacity="1" stop-color="rgb(31.648254%, 10.276794%, 74.461365%)" offset="0.132812"/><stop stop-opacity="1" stop-color="rgb(31.433105%, 10.328674%, 73.731995%)" offset="0.136719"/><stop stop-opacity="1" stop-color="rgb(31.217957%, 10.38208%, 73.002625%)" offset="0.140625"/><stop stop-opacity="1" stop-color="rgb(31.001282%, 10.43396%, 72.273254%)" offset="0.144531"/><stop stop-opacity="1" stop-color="rgb(30.786133%, 10.48584%, 71.543884%)" offset="0.148438"/><stop stop-opacity="1" stop-color="rgb(30.569458%, 10.53772%, 70.814514%)" offset="0.152344"/><stop stop-opacity="1" stop-color="rgb(30.354309%, 10.591125%, 70.08667%)" offset="0.15625"/><stop stop-opacity="1" stop-color="rgb(30.137634%, 10.643005%, 69.3573%)" offset="0.160156"/><stop stop-opacity="1" stop-color="rgb(29.922485%, 10.696411%, 68.62793%)" offset="0.164062"/><stop stop-opacity="1" stop-color="rgb(29.705811%, 10.748291%, 67.89856%)" offset="0.167969"/><stop stop-opacity="1" stop-color="rgb(29.490662%, 10.801697%, 67.169189%)" offset="0.171875"/><stop stop-opacity="1" stop-color="rgb(29.273987%, 10.853577%, 66.439819%)" offset="0.175781"/><stop stop-opacity="1" stop-color="rgb(29.058838%, 10.906982%, 65.710449%)" offset="0.179687"/><stop stop-opacity="1" stop-color="rgb(28.842163%, 10.958862%, 64.981079%)" offset="0.183594"/><stop stop-opacity="1" stop-color="rgb(28.627014%, 11.010742%, 64.251709%)" offset="0.1875"/><stop stop-opacity="1" stop-color="rgb(28.410339%, 11.062622%, 63.522339%)" offset="0.191406"/><stop stop-opacity="1" stop-color="rgb(28.19519%, 11.116028%, 62.792969%)" offset="0.195312"/><stop stop-opacity="1" stop-color="rgb(27.978516%, 11.167908%, 62.063599%)" offset="0.199219"/><stop stop-opacity="1" stop-color="rgb(27.763367%, 11.221313%, 61.334229%)" offset="0.203125"/><stop stop-opacity="1" stop-color="rgb(27.546692%, 11.273193%, 60.604858%)" offset="0.207031"/><stop stop-opacity="1" stop-color="rgb(27.331543%, 11.326599%, 59.875488%)" offset="0.210938"/><stop stop-opacity="1" stop-color="rgb(27.114868%, 11.378479%, 59.146118%)" offset="0.214844"/><stop stop-opacity="1" stop-color="rgb(26.899719%, 11.431885%, 58.416748%)" offset="0.21875"/><stop stop-opacity="1" stop-color="rgb(26.683044%, 11.483765%, 57.687378%)" offset="0.222656"/><stop stop-opacity="1" stop-color="rgb(26.467896%, 11.53717%, 56.958008%)" offset="0.226562"/><stop stop-opacity="1" stop-color="rgb(26.251221%, 11.58905%, 56.228638%)" offset="0.230469"/><stop stop-opacity="1" stop-color="rgb(26.036072%, 11.64093%, 55.499268%)" offset="0.234375"/><stop stop-opacity="1" stop-color="rgb(25.819397%, 11.69281%, 54.769897%)" offset="0.238281"/><stop stop-opacity="1" stop-color="rgb(25.604248%, 11.746216%, 54.040527%)" offset="0.242187"/><stop stop-opacity="1" stop-color="rgb(25.387573%, 11.798096%, 53.311157%)" offset="0.246094"/><stop stop-opacity="1" stop-color="rgb(25.172424%, 11.851501%, 52.581787%)" offset="0.25"/><stop stop-opacity="1" stop-color="rgb(24.95575%, 11.903381%, 51.852417%)" offset="0.253906"/><stop stop-opacity="1" stop-color="rgb(24.740601%, 11.956787%, 51.123047%)" offset="0.257812"/><stop stop-opacity="1" stop-color="rgb(24.523926%, 12.008667%, 50.393677%)" offset="0.261719"/><stop stop-opacity="1" stop-color="rgb(24.308777%, 12.062073%, 49.665833%)" offset="0.265625"/><stop stop-opacity="1" stop-color="rgb(24.092102%, 12.113953%, 48.936462%)" offset="0.269531"/><stop stop-opacity="1" stop-color="rgb(23.876953%, 12.167358%, 48.207092%)" offset="0.273437"/><stop stop-opacity="1" stop-color="rgb(23.660278%, 12.219238%, 47.477722%)" offset="0.277344"/><stop stop-opacity="1" stop-color="rgb(23.445129%, 12.271118%, 46.748352%)" offset="0.28125"/><stop stop-opacity="1" stop-color="rgb(23.228455%, 12.322998%, 46.018982%)" offset="0.285156"/><stop stop-opacity="1" stop-color="rgb(23.013306%, 12.376404%, 45.289612%)" offset="0.289062"/><stop stop-opacity="1" stop-color="rgb(22.796631%, 12.428284%, 44.560242%)" offset="0.292969"/><stop stop-opacity="1" stop-color="rgb(22.581482%, 12.481689%, 43.830872%)" offset="0.296875"/><stop stop-opacity="1" stop-color="rgb(22.364807%, 12.533569%, 43.101501%)" offset="0.300781"/><stop stop-opacity="1" stop-color="rgb(22.149658%, 12.586975%, 42.372131%)" offset="0.304687"/><stop stop-opacity="1" stop-color="rgb(21.934509%, 12.638855%, 41.642761%)" offset="0.308594"/><stop stop-opacity="1" stop-color="rgb(21.71936%, 12.692261%, 40.913391%)" offset="0.3125"/><stop stop-opacity="1" stop-color="rgb(21.502686%, 12.744141%, 40.184021%)" offset="0.316406"/><stop stop-opacity="1" stop-color="rgb(21.287537%, 12.797546%, 39.454651%)" offset="0.320312"/><stop stop-opacity="1" stop-color="rgb(21.070862%, 12.849426%, 38.725281%)" offset="0.324219"/><stop stop-opacity="1" stop-color="rgb(20.855713%, 12.901306%, 37.995911%)" offset="0.328125"/><stop stop-opacity="1" stop-color="rgb(20.639038%, 12.953186%, 37.266541%)" offset="0.332031"/><stop stop-opacity="1" stop-color="rgb(20.423889%, 13.006592%, 36.53717%)" offset="0.335937"/><stop stop-opacity="1" stop-color="rgb(20.207214%, 13.058472%, 35.8078%)" offset="0.339844"/><stop stop-opacity="1" stop-color="rgb(19.992065%, 13.111877%, 35.07843%)" offset="0.34375"/><stop stop-opacity="1" stop-color="rgb(19.775391%, 13.163757%, 34.34906%)" offset="0.347656"/><stop stop-opacity="1" stop-color="rgb(19.560242%, 13.217163%, 33.61969%)" offset="0.351562"/><stop stop-opacity="1" stop-color="rgb(19.343567%, 13.269043%, 32.89032%)" offset="0.355469"/><stop stop-opacity="1" stop-color="rgb(19.128418%, 13.322449%, 32.16095%)" offset="0.359375"/><stop stop-opacity="1" stop-color="rgb(18.911743%, 13.374329%, 31.43158%)" offset="0.363281"/><stop stop-opacity="1" stop-color="rgb(18.696594%, 13.426208%, 30.702209%)" offset="0.367188"/><stop stop-opacity="1" stop-color="rgb(18.479919%, 13.478088%, 29.972839%)" offset="0.371094"/><stop stop-opacity="1" stop-color="rgb(18.264771%, 13.531494%, 29.244995%)" offset="0.375"/><stop stop-opacity="1" stop-color="rgb(18.048096%, 13.583374%, 28.515625%)" offset="0.378906"/><stop stop-opacity="1" stop-color="rgb(17.832947%, 13.63678%, 27.786255%)" offset="0.382812"/><stop stop-opacity="1" stop-color="rgb(17.616272%, 13.68866%, 27.056885%)" offset="0.386719"/><stop stop-opacity="1" stop-color="rgb(17.401123%, 13.742065%, 26.327515%)" offset="0.390625"/><stop stop-opacity="1" stop-color="rgb(17.184448%, 13.793945%, 25.598145%)" offset="0.394531"/><stop stop-opacity="1" stop-color="rgb(16.969299%, 13.847351%, 24.868774%)" offset="0.398438"/><stop stop-opacity="1" stop-color="rgb(16.752625%, 13.899231%, 24.139404%)" offset="0.402344"/><stop stop-opacity="1" stop-color="rgb(16.537476%, 13.952637%, 23.410034%)" offset="0.40625"/><stop stop-opacity="1" stop-color="rgb(16.320801%, 14.004517%, 22.680664%)" offset="0.410156"/><stop stop-opacity="1" stop-color="rgb(16.105652%, 14.056396%, 21.951294%)" offset="0.414063"/><stop stop-opacity="1" stop-color="rgb(15.888977%, 14.108276%, 21.221924%)" offset="0.417969"/><stop stop-opacity="1" stop-color="rgb(15.673828%, 14.161682%, 20.492554%)" offset="0.421875"/><stop stop-opacity="1" stop-color="rgb(15.457153%, 14.213562%, 19.763184%)" offset="0.425781"/><stop stop-opacity="1" stop-color="rgb(15.242004%, 14.266968%, 19.033813%)" offset="0.429688"/><stop stop-opacity="1" stop-color="rgb(15.02533%, 14.318848%, 18.304443%)" offset="0.433594"/><stop stop-opacity="1" stop-color="rgb(14.810181%, 14.372253%, 17.575073%)" offset="0.4375"/><stop stop-opacity="1" stop-color="rgb(14.593506%, 14.424133%, 16.845703%)" offset="0.441406"/><stop stop-opacity="1" stop-color="rgb(14.378357%, 14.477539%, 16.116333%)" offset="0.445313"/><stop stop-opacity="1" stop-color="rgb(14.161682%, 14.529419%, 15.386963%)" offset="0.449219"/><stop stop-opacity="1" stop-color="rgb(13.946533%, 14.582825%, 14.657593%)" offset="0.453125"/><stop stop-opacity="1" stop-color="rgb(13.729858%, 14.634705%, 13.928223%)" offset="0.457031"/><stop stop-opacity="1" stop-color="rgb(13.514709%, 14.686584%, 13.198853%)" offset="0.460938"/><stop stop-opacity="1" stop-color="rgb(13.298035%, 14.738464%, 12.469482%)" offset="0.464844"/><stop stop-opacity="1" stop-color="rgb(13.082886%, 14.79187%, 11.740112%)" offset="0.46875"/><stop stop-opacity="1" stop-color="rgb(12.866211%, 14.84375%, 11.010742%)" offset="0.472656"/><stop stop-opacity="1" stop-color="rgb(12.651062%, 14.897156%, 10.281372%)" offset="0.476563"/><stop stop-opacity="1" stop-color="rgb(12.435913%, 14.949036%, 9.552002%)" offset="0.480469"/><stop stop-opacity="1" stop-color="rgb(12.220764%, 15.002441%, 8.824158%)" offset="0.484375"/><stop stop-opacity="1" stop-color="rgb(12.004089%, 15.054321%, 8.094788%)" offset="0.488281"/><stop stop-opacity="1" stop-color="rgb(11.78894%, 15.107727%, 7.365417%)" offset="0.492188"/><stop stop-opacity="1" stop-color="rgb(11.572266%, 15.159607%, 6.636047%)" offset="0.496094"/><stop stop-opacity="1" stop-color="rgb(11.357117%, 15.213013%, 5.906677%)" offset="0.5"/><stop stop-opacity="1" stop-color="rgb(11.25946%, 15.325928%, 5.44281%)" offset="0.503906"/><stop stop-opacity="1" stop-color="rgb(11.16333%, 15.438843%, 4.980469%)" offset="0.507812"/><stop stop-opacity="1" stop-color="rgb(11.64093%, 15.841675%, 5.79834%)" offset="0.511719"/><stop stop-opacity="1" stop-color="rgb(12.120056%, 16.246033%, 6.616211%)" offset="0.515625"/><stop stop-opacity="1" stop-color="rgb(12.597656%, 16.650391%, 7.432556%)" offset="0.519531"/><stop stop-opacity="1" stop-color="rgb(13.075256%, 17.054749%, 8.250427%)" offset="0.523438"/><stop stop-opacity="1" stop-color="rgb(13.552856%, 17.457581%, 9.066772%)" offset="0.527344"/><stop stop-opacity="1" stop-color="rgb(14.030457%, 17.861938%, 9.884644%)" offset="0.53125"/><stop stop-opacity="1" stop-color="rgb(14.508057%, 18.264771%, 10.700989%)" offset="0.535156"/><stop stop-opacity="1" stop-color="rgb(14.985657%, 18.669128%, 11.51886%)" offset="0.539062"/><stop stop-opacity="1" stop-color="rgb(15.463257%, 19.073486%, 12.335205%)" offset="0.542969"/><stop stop-opacity="1" stop-color="rgb(15.940857%, 19.477844%, 13.153076%)" offset="0.546875"/><stop stop-opacity="1" stop-color="rgb(16.418457%, 19.880676%, 13.969421%)" offset="0.550781"/><stop stop-opacity="1" stop-color="rgb(16.896057%, 20.285034%, 14.787292%)" offset="0.554688"/><stop stop-opacity="1" stop-color="rgb(17.373657%, 20.689392%, 15.603638%)" offset="0.558594"/><stop stop-opacity="1" stop-color="rgb(17.851257%, 21.09375%, 16.421509%)" offset="0.5625"/><stop stop-opacity="1" stop-color="rgb(18.328857%, 21.496582%, 17.23938%)" offset="0.566406"/><stop stop-opacity="1" stop-color="rgb(18.806458%, 21.90094%, 18.057251%)" offset="0.570312"/><stop stop-opacity="1" stop-color="rgb(19.284058%, 22.303772%, 18.873596%)" offset="0.574219"/><stop stop-opacity="1" stop-color="rgb(19.761658%, 22.70813%, 19.691467%)" offset="0.578125"/><stop stop-opacity="1" stop-color="rgb(20.239258%, 23.112488%, 20.507812%)" offset="0.582031"/><stop stop-opacity="1" stop-color="rgb(20.716858%, 23.516846%, 21.325684%)" offset="0.585937"/><stop stop-opacity="1" stop-color="rgb(21.194458%, 23.919678%, 22.142029%)" offset="0.589844"/><stop stop-opacity="1" stop-color="rgb(21.672058%, 24.324036%, 22.9599%)" offset="0.59375"/><stop stop-opacity="1" stop-color="rgb(22.149658%, 24.726868%, 23.776245%)" offset="0.597656"/><stop stop-opacity="1" stop-color="rgb(22.627258%, 25.131226%, 24.594116%)" offset="0.601562"/><stop stop-opacity="1" stop-color="rgb(23.104858%, 25.535583%, 25.410461%)" offset="0.605469"/><stop stop-opacity="1" stop-color="rgb(23.582458%, 25.939941%, 26.228333%)" offset="0.609375"/><stop stop-opacity="1" stop-color="rgb(24.060059%, 26.342773%, 27.044678%)" offset="0.613281"/><stop stop-opacity="1" stop-color="rgb(24.537659%, 26.747131%, 27.862549%)" offset="0.617187"/><stop stop-opacity="1" stop-color="rgb(25.015259%, 27.151489%, 28.678894%)" offset="0.621094"/><stop stop-opacity="1" stop-color="rgb(25.492859%, 27.555847%, 29.496765%)" offset="0.625"/><stop stop-opacity="1" stop-color="rgb(25.970459%, 27.958679%, 30.314636%)" offset="0.628906"/><stop stop-opacity="1" stop-color="rgb(26.448059%, 28.363037%, 31.132507%)" offset="0.632812"/><stop stop-opacity="1" stop-color="rgb(26.925659%, 28.765869%, 31.948853%)" offset="0.636719"/><stop stop-opacity="1" stop-color="rgb(27.403259%, 29.170227%, 32.766724%)" offset="0.640625"/><stop stop-opacity="1" stop-color="rgb(27.880859%, 29.574585%, 33.583069%)" offset="0.644531"/><stop stop-opacity="1" stop-color="rgb(28.358459%, 29.978943%, 34.40094%)" offset="0.648437"/><stop stop-opacity="1" stop-color="rgb(28.83606%, 30.381775%, 35.217285%)" offset="0.652344"/><stop stop-opacity="1" stop-color="rgb(29.31366%, 30.786133%, 36.035156%)" offset="0.65625"/><stop stop-opacity="1" stop-color="rgb(29.79126%, 31.190491%, 36.851501%)" offset="0.660156"/><stop stop-opacity="1" stop-color="rgb(30.26886%, 31.594849%, 37.669373%)" offset="0.664062"/><stop stop-opacity="1" stop-color="rgb(30.74646%, 31.997681%, 38.485718%)" offset="0.667969"/><stop stop-opacity="1" stop-color="rgb(31.22406%, 32.402039%, 39.303589%)" offset="0.671875"/><stop stop-opacity="1" stop-color="rgb(31.70166%, 32.804871%, 40.119934%)" offset="0.675781"/><stop stop-opacity="1" stop-color="rgb(32.17926%, 33.209229%, 40.937805%)" offset="0.679687"/><stop stop-opacity="1" stop-color="rgb(32.65686%, 33.613586%, 41.755676%)" offset="0.683594"/><stop stop-opacity="1" stop-color="rgb(33.135986%, 34.017944%, 42.573547%)" offset="0.6875"/><stop stop-opacity="1" stop-color="rgb(33.613586%, 34.420776%, 43.389893%)" offset="0.691406"/><stop stop-opacity="1" stop-color="rgb(34.091187%, 34.825134%, 44.207764%)" offset="0.695312"/><stop stop-opacity="1" stop-color="rgb(34.568787%, 35.227966%, 45.024109%)" offset="0.699219"/><stop stop-opacity="1" stop-color="rgb(35.046387%, 35.632324%, 45.84198%)" offset="0.703125"/><stop stop-opacity="1" stop-color="rgb(35.523987%, 36.036682%, 46.658325%)" offset="0.707031"/><stop stop-opacity="1" stop-color="rgb(36.001587%, 36.44104%, 47.476196%)" offset="0.710938"/><stop stop-opacity="1" stop-color="rgb(36.479187%, 36.843872%, 48.292542%)" offset="0.714844"/><stop stop-opacity="1" stop-color="rgb(36.956787%, 37.24823%, 49.110413%)" offset="0.71875"/><stop stop-opacity="1" stop-color="rgb(37.434387%, 37.652588%, 49.926758%)" offset="0.722656"/><stop stop-opacity="1" stop-color="rgb(37.911987%, 38.056946%, 50.744629%)" offset="0.726562"/><stop stop-opacity="1" stop-color="rgb(38.389587%, 38.459778%, 51.560974%)" offset="0.730469"/><stop stop-opacity="1" stop-color="rgb(38.867188%, 38.864136%, 52.378845%)" offset="0.734375"/><stop stop-opacity="1" stop-color="rgb(39.344788%, 39.266968%, 53.196716%)" offset="0.738281"/><stop stop-opacity="1" stop-color="rgb(39.822388%, 39.671326%, 54.014587%)" offset="0.742188"/><stop stop-opacity="1" stop-color="rgb(40.299988%, 40.075684%, 54.830933%)" offset="0.746094"/><stop stop-opacity="1" stop-color="rgb(40.777588%, 40.480042%, 55.648804%)" offset="0.75"/><stop stop-opacity="1" stop-color="rgb(41.255188%, 40.882874%, 56.465149%)" offset="0.753906"/><stop stop-opacity="1" stop-color="rgb(41.732788%, 41.287231%, 57.28302%)" offset="0.757812"/><stop stop-opacity="1" stop-color="rgb(42.210388%, 41.691589%, 58.099365%)" offset="0.761719"/><stop stop-opacity="1" stop-color="rgb(42.687988%, 42.095947%, 58.917236%)" offset="0.765625"/><stop stop-opacity="1" stop-color="rgb(43.165588%, 42.498779%, 59.733582%)" offset="0.769531"/><stop stop-opacity="1" stop-color="rgb(43.643188%, 42.903137%, 60.551453%)" offset="0.773438"/><stop stop-opacity="1" stop-color="rgb(44.120789%, 43.305969%, 61.367798%)" offset="0.777344"/><stop stop-opacity="1" stop-color="rgb(44.598389%, 43.710327%, 62.185669%)" offset="0.78125"/><stop stop-opacity="1" stop-color="rgb(45.075989%, 44.114685%, 63.002014%)" offset="0.785156"/><stop stop-opacity="1" stop-color="rgb(45.553589%, 44.519043%, 63.819885%)" offset="0.789062"/><stop stop-opacity="1" stop-color="rgb(46.031189%, 44.921875%, 64.63623%)" offset="0.792969"/><stop stop-opacity="1" stop-color="rgb(46.508789%, 45.326233%, 65.454102%)" offset="0.796875"/><stop stop-opacity="1" stop-color="rgb(46.986389%, 45.729065%, 66.271973%)" offset="0.800781"/><stop stop-opacity="1" stop-color="rgb(47.463989%, 46.133423%, 67.089844%)" offset="0.804688"/><stop stop-opacity="1" stop-color="rgb(47.941589%, 46.537781%, 67.906189%)" offset="0.808594"/><stop stop-opacity="1" stop-color="rgb(48.419189%, 46.942139%, 68.72406%)" offset="0.8125"/><stop stop-opacity="1" stop-color="rgb(48.89679%, 47.344971%, 69.540405%)" offset="0.816406"/><stop stop-opacity="1" stop-color="rgb(49.37439%, 47.749329%, 70.358276%)" offset="0.820313"/><stop stop-opacity="1" stop-color="rgb(49.85199%, 48.153687%, 71.174622%)" offset="0.824219"/><stop stop-opacity="1" stop-color="rgb(50.32959%, 48.558044%, 71.992493%)" offset="0.828125"/><stop stop-opacity="1" stop-color="rgb(50.80719%, 48.960876%, 72.808838%)" offset="0.832031"/><stop stop-opacity="1" stop-color="rgb(51.28479%, 49.365234%, 73.626709%)" offset="0.835938"/><stop stop-opacity="1" stop-color="rgb(51.76239%, 49.768066%, 74.443054%)" offset="0.839844"/><stop stop-opacity="1" stop-color="rgb(52.23999%, 50.172424%, 75.260925%)" offset="0.84375"/><stop stop-opacity="1" stop-color="rgb(52.71759%, 50.576782%, 76.077271%)" offset="0.847656"/><stop stop-opacity="1" stop-color="rgb(53.19519%, 50.98114%, 76.895142%)" offset="0.851563"/><stop stop-opacity="1" stop-color="rgb(53.672791%, 51.383972%, 77.713013%)" offset="0.855469"/><stop stop-opacity="1" stop-color="rgb(54.151917%, 51.78833%, 78.530884%)" offset="0.859375"/><stop stop-opacity="1" stop-color="rgb(54.629517%, 52.192688%, 79.347229%)" offset="0.863281"/><stop stop-opacity="1" stop-color="rgb(55.107117%, 52.597046%, 80.1651%)" offset="0.867188"/><stop stop-opacity="1" stop-color="rgb(55.584717%, 52.999878%, 80.981445%)" offset="0.871094"/><stop stop-opacity="1" stop-color="rgb(56.062317%, 53.404236%, 81.799316%)" offset="0.875"/><stop stop-opacity="1" stop-color="rgb(56.539917%, 53.807068%, 82.615662%)" offset="0.878906"/><stop stop-opacity="1" stop-color="rgb(57.017517%, 54.211426%, 83.433533%)" offset="0.882813"/><stop stop-opacity="1" stop-color="rgb(57.495117%, 54.615784%, 84.249878%)" offset="0.886719"/><stop stop-opacity="1" stop-color="rgb(57.972717%, 55.020142%, 85.067749%)" offset="0.890625"/><stop stop-opacity="1" stop-color="rgb(58.450317%, 55.422974%, 85.884094%)" offset="0.894531"/><stop stop-opacity="1" stop-color="rgb(58.927917%, 55.827332%, 86.701965%)" offset="0.898438"/><stop stop-opacity="1" stop-color="rgb(59.405518%, 56.230164%, 87.518311%)" offset="0.902344"/><stop stop-opacity="1" stop-color="rgb(59.883118%, 56.634521%, 88.336182%)" offset="0.90625"/><stop stop-opacity="1" stop-color="rgb(60.360718%, 57.038879%, 89.152527%)" offset="0.910156"/><stop stop-opacity="1" stop-color="rgb(60.838318%, 57.443237%, 89.970398%)" offset="0.914063"/><stop stop-opacity="1" stop-color="rgb(61.315918%, 57.846069%, 90.788269%)" offset="0.917969"/><stop stop-opacity="1" stop-color="rgb(61.793518%, 58.250427%, 91.60614%)" offset="0.921875"/><stop stop-opacity="1" stop-color="rgb(62.271118%, 58.654785%, 92.422485%)" offset="0.925781"/><stop stop-opacity="1" stop-color="rgb(62.748718%, 59.059143%, 93.240356%)" offset="0.929688"/><stop stop-opacity="1" stop-color="rgb(63.226318%, 59.461975%, 94.056702%)" offset="0.933594"/><stop stop-opacity="1" stop-color="rgb(63.703918%, 59.866333%, 94.874573%)" offset="0.9375"/><stop stop-opacity="1" stop-color="rgb(64.181519%, 60.269165%, 95.690918%)" offset="0.941406"/><stop stop-opacity="1" stop-color="rgb(64.659119%, 60.673523%, 96.508789%)" offset="0.945312"/><stop stop-opacity="1" stop-color="rgb(65.136719%, 61.077881%, 97.325134%)" offset="0.949219"/><stop stop-opacity="1" stop-color="rgb(65.614319%, 61.482239%, 98.143005%)" offset="0.953125"/><stop stop-opacity="1" stop-color="rgb(66.091919%, 61.885071%, 98.959351%)" offset="0.957031"/><stop stop-opacity="1" stop-color="rgb(66.569519%, 62.289429%, 99.777222%)" offset="0.960938"/><stop stop-opacity="1" stop-color="rgb(66.633606%, 62.34436%, 99.888611%)" offset="0.96875"/><stop stop-opacity="1" stop-color="rgb(66.699219%, 62.399292%, 100%)" offset="1"/></linearGradient><clipPath id="c9a140f30b"><path d="M 64 58 L 318 58 L 318 312 L 64 312 Z M 64 58 " clip-rule="nonzero"/></clipPath><clipPath id="45129350fe"><path d="M 20.820312 238.265625 L 244.621094 14.464844 L 361.824219 131.667969 L 138.023438 355.46875 Z M 20.820312 238.265625 " clip-rule="nonzero"/></clipPath><clipPath id="cd79ef2d06"><path d="M 20.820312 238.265625 L 244.621094 14.464844 L 361.824219 131.667969 L 138.023438 355.46875 Z M 20.820312 238.265625 " clip-rule="nonzero"/></clipPath><clipPath id="5c72c14627"><path d="M 207.785156 44.84375 L 253.535156 44.84375 L 253.535156 90.59375 L 207.785156 90.59375 Z M 207.785156 44.84375 " clip-rule="nonzero"/></clipPath><clipPath id="8200f2d1e2"><path d="M 145.890625 275.101562 L 191.640625 275.101562 L 191.640625 320.851562 L 145.890625 320.851562 Z M 145.890625 275.101562 " clip-rule="nonzero"/></clipPath></defs><rect x="-37.5" width="450" fill="#ffffff" y="-37.499999" height="449.999989" fill-opacity="1"/><rect x="-37.5" width="450" fill="#ffffff" y="-37.499999" height="449.999989" fill-opacity="1"/><rect x="-37.5" width="450" fill="#402978" y="-37.499999" height="449.999989" fill-opacity="1"/><g clip-path="url(#8d1045693b)"><path fill="url(#d275760954)" d="M 0 0.015625 L 0 375 L 374.992188 375 L 374.992188 0.015625 Z M 0 0.015625 " fill-rule="nonzero"/></g><g clip-path="url(#c9a140f30b)"><g clip-path="url(#45129350fe)"><g clip-path="url(#cd79ef2d06)"><path fill="#fdf1e8" d="M 249.933594 243.554688 C 220.101562 273.386719 185.96875 295.382812 153.847656 305.457031 C 138.183594 310.378906 123.847656 312.203125 111.234375 310.863281 C 98.109375 309.523438 87.410156 304.785156 79.457031 296.832031 C 71.503906 288.878906 66.765625 278.175781 65.378906 265.054688 C 64.058594 252.417969 65.886719 238.082031 70.785156 222.4375 C 80.90625 190.316406 102.898438 156.183594 132.730469 126.351562 C 162.5625 96.519531 196.695312 74.527344 228.816406 64.453125 C 244.484375 59.53125 258.820312 57.703125 271.429688 59.046875 C 284.554688 60.433594 295.234375 65.148438 303.210938 73.125 C 311.1875 81.101562 315.902344 91.777344 317.289062 104.902344 C 318.605469 117.539062 316.78125 131.875 311.882812 147.515625 C 301.734375 179.617188 279.765625 213.722656 249.933594 243.554688 Z M 133.660156 127.285156 C 72.484375 188.460938 48.597656 264.109375 80.386719 295.898438 C 112.175781 327.6875 187.828125 303.804688 249.003906 242.625 C 310.183594 181.449219 334.066406 105.796875 302.277344 74.007812 C 270.488281 42.222656 194.839844 66.105469 133.660156 127.285156 Z M 133.660156 127.285156 " fill-opacity="1" fill-rule="nonzero"/></g></g></g><g fill="#ffffff" fill-opacity="1"><g transform="translate(33.811478, 174.42601)"><g><path d="M 4.273438 -53.429688 L 4.273438 0 L 21.160156 0 C 35.476562 0 46.429688 -11.21875 46.429688 -26.714844 C 46.429688 -42.210938 35.476562 -53.429688 21.160156 -53.429688 Z M 8.546875 -49.796875 C 8.761719 -51.828125 9.671875 -52.363281 11.328125 -52.363281 C 12.984375 -52.363281 16.347656 -52.414062 17.792969 -52.414062 C 34.675781 -52.414062 41.835938 -39.109375 41.835938 -26.714844 C 41.835938 -14.320312 34.675781 -0.746094 17.792969 -0.746094 C 16.347656 -0.746094 12.984375 -0.800781 11.328125 -0.800781 C 9.402344 -0.800781 8.496094 -1.550781 8.496094 -4.433594 C 8.496094 -11.21875 8.546875 -46.058594 8.546875 -49.796875 Z M 8.546875 -49.796875 "/></g></g></g><g fill="#ffffff" fill-opacity="1"><g transform="translate(82.909833, 174.42601)"><g><path d="M 3.738281 -36.972656 L 3.738281 0 L 8.015625 0 L 8.015625 -22.601562 C 8.015625 -29.332031 14.425781 -35.210938 20.835938 -35.210938 C 24.898438 -35.210938 25.644531 -32.753906 28.53125 -32.753906 C 30.1875 -32.753906 30.507812 -34.089844 30.507812 -34.730469 C 30.507812 -36.652344 27.410156 -38.042969 23.5625 -38.042969 C 16.882812 -38.042969 11.96875 -33.554688 9.351562 -29.921875 C 8.921875 -29.332031 8.601562 -29.011719 8.386719 -29.011719 C 8.121094 -29.011719 8.015625 -29.441406 8.015625 -30.292969 L 8.015625 -36.972656 Z M 3.738281 -36.972656 "/></g></g></g><g fill="#ffffff" fill-opacity="1"><g transform="translate(113.415992, 174.42601)"><g><path d="M 21.050781 1.070312 C 28.265625 1.070312 32.484375 -2.191406 34.941406 -7.320312 L 33.820312 -7.960938 C 32.003906 -3.953125 28.210938 -0.535156 22.28125 -0.535156 C 14.640625 -0.535156 9.511719 -5.609375 7.800781 -14.105469 C 7.480469 -15.601562 8.441406 -16.617188 10.097656 -16.5625 C 10.6875 -16.5625 11.273438 -16.5625 11.96875 -16.5625 C 23.296875 -16.5625 33.980469 -22.332031 33.980469 -30.1875 C 33.980469 -35.636719 27.835938 -38.042969 22.332031 -38.042969 C 11.539062 -38.042969 2.671875 -29.226562 2.671875 -18.59375 C 2.671875 -6.519531 10.367188 1.070312 21.050781 1.070312 Z M 7.265625 -20.195312 C 7.480469 -28.691406 12.875 -36.972656 22.121094 -36.972656 C 26.074219 -36.972656 29.652344 -34.410156 29.652344 -29.8125 C 29.652344 -22.332031 18.914062 -17.417969 11.914062 -17.417969 C 10.847656 -17.417969 9.9375 -17.523438 9.191406 -17.632812 C 8.066406 -17.792969 7.214844 -18.96875 7.265625 -20.195312 Z M 7.265625 -20.195312 "/></g></g></g><g fill="#ffffff" fill-opacity="1"><g transform="translate(150.226403, 174.42601)"><g><path d="M 2.832031 -8.546875 C 2.832031 -2.9375 7.535156 1.070312 14.640625 1.070312 C 20.25 1.070312 25.324219 -2.296875 29.28125 -5.664062 C 29.761719 -6.089844 30.1875 -6.25 30.507812 -6.25 C 30.988281 -6.25 31.257812 -5.769531 31.257812 -4.808594 L 31.257812 0 L 35.53125 0 L 35.53125 -25.058594 C 35.53125 -32.003906 29.761719 -38.042969 19.289062 -38.042969 C 13.089844 -38.042969 5.769531 -34.410156 5.769531 -29.972656 C 5.769531 -28.746094 6.464844 -27.785156 7.535156 -27.785156 C 11.863281 -27.785156 10.042969 -36.972656 20.304688 -36.972656 C 23.347656 -36.972656 31.257812 -36.117188 31.257812 -27.785156 C 31.257812 -20.996094 2.832031 -26.019531 2.832031 -8.546875 Z M 19.5 -21.851562 C 23.027344 -22.492188 25.96875 -22.921875 28.746094 -23.722656 C 30.292969 -24.148438 31.257812 -23.457031 31.257812 -21.90625 L 31.257812 -12.34375 C 31.257812 -10.578125 30.617188 -8.601562 29.652344 -7.535156 C 26.609375 -4.113281 21.90625 -1.015625 16.5625 -1.015625 C 12.023438 -1.015625 7.640625 -3.6875 7.640625 -9.511719 C 7.640625 -15.761719 12.769531 -20.625 19.5 -21.851562 Z M 19.5 -21.851562 "/></g></g></g><g fill="#ffffff" fill-opacity="1"><g transform="translate(189.494398, 174.42601)"><g><path d="M 3.738281 -36.972656 L 3.738281 0 L 8.015625 0 L 8.015625 -24.523438 C 8.015625 -31.257812 14.53125 -36.972656 21.050781 -36.972656 C 26.394531 -36.972656 28.691406 -33.285156 28.691406 -28.371094 L 28.691406 0 L 32.964844 0 L 32.964844 -24.738281 C 32.964844 -30.988281 38.789062 -36.972656 45.949219 -36.972656 C 51.292969 -36.972656 53.589844 -33.285156 53.589844 -28.371094 L 53.589844 0 L 57.863281 0 L 57.863281 -27.570312 C 57.863281 -32.914062 54.605469 -38.042969 45.894531 -38.042969 C 41.035156 -38.042969 36.546875 -35.265625 33.929688 -31.417969 C 33.5 -30.777344 33.125 -30.457031 32.859375 -30.457031 C 32.484375 -30.457031 32.21875 -30.828125 31.84375 -31.578125 C 30.082031 -35.425781 26.234375 -38.042969 20.996094 -38.042969 C 16.347656 -38.042969 11.96875 -35.476562 9.351562 -31.84375 C 8.921875 -31.257812 8.601562 -30.9375 8.386719 -30.9375 C 8.121094 -30.9375 8.015625 -31.363281 8.015625 -32.21875 L 8.015625 -36.972656 Z M 3.738281 -36.972656 "/></g></g></g><g fill="#ffffff" fill-opacity="1"><g transform="translate(146.698189, 233.378555)"><g><path d="M 2.9375 -11.273438 C 2.9375 -3.953125 11.914062 1.070312 25.003906 1.070312 C 35.691406 1.070312 46.429688 -3.953125 46.429688 -14.855469 C 46.429688 -36.972656 7.535156 -25.644531 7.535156 -40.339844 C 7.535156 -48.835938 13.945312 -53.429688 24.042969 -53.429688 C 32.914062 -53.429688 40.980469 -49.046875 42.53125 -41.621094 C 44.078125 -42.15625 44.667969 -43.492188 44.667969 -45.148438 C 44.667969 -51.933594 33.445312 -54.5 24.953125 -54.5 C 14.960938 -54.5 3.738281 -50.492188 3.738281 -40.074219 C 3.738281 -18.859375 42.582031 -33.339844 42.582031 -13.359375 C 42.582031 -4.542969 34.25 0 25.003906 0 C 15.601562 0 7.054688 -5.878906 7.054688 -11.648438 C 7.054688 -13.304688 7.640625 -14.640625 9.191406 -15.175781 C 8.441406 -15.816406 7.640625 -16.082031 6.890625 -16.082031 C 4.808594 -16.082031 2.9375 -14.105469 2.9375 -11.273438 Z M 2.9375 -11.273438 "/></g></g></g><g fill="#ffffff" fill-opacity="1"><g transform="translate(195.582837, 233.378555)"><g><path d="M 4.113281 -36.972656 L 4.113281 19.769531 L 8.066406 19.769531 L 8.066406 -1.441406 C 8.066406 -2.992188 8.335938 -3.738281 8.921875 -3.738281 C 9.402344 -3.738281 10.097656 -3.3125 11.058594 -2.511719 C 13.410156 -0.535156 16.5625 1.070312 21.90625 1.070312 C 32.003906 1.070312 37.5625 -6.890625 37.5625 -17.363281 C 37.5625 -26.5 32.324219 -36.972656 21.160156 -36.972656 Z M 8.496094 -9.882812 L 8.496094 -33.234375 C 8.496094 -34.835938 9.5625 -35.90625 11.167969 -35.90625 L 17.3125 -35.90625 C 28.53125 -35.90625 33.234375 -26.769531 33.234375 -17.417969 C 33.234375 -8.441406 27.996094 -0.265625 20.570312 -0.265625 C 15.28125 -0.265625 10.472656 -3.367188 8.921875 -7.105469 C 8.65625 -7.746094 8.496094 -8.761719 8.496094 -9.882812 Z M 8.496094 -9.882812 "/></g></g></g><g fill="#ffffff" fill-opacity="1"><g transform="translate(235.75907, 233.378555)"><g><path d="M 2.832031 -8.546875 C 2.832031 -2.9375 7.535156 1.070312 14.640625 1.070312 C 20.25 1.070312 25.324219 -2.296875 29.28125 -5.664062 C 29.761719 -6.089844 30.1875 -6.25 30.507812 -6.25 C 30.988281 -6.25 31.257812 -5.769531 31.257812 -4.808594 L 31.257812 0 L 35.53125 0 L 35.53125 -25.058594 C 35.53125 -32.003906 29.761719 -38.042969 19.289062 -38.042969 C 13.089844 -38.042969 5.769531 -34.410156 5.769531 -29.972656 C 5.769531 -28.746094 6.464844 -27.785156 7.535156 -27.785156 C 11.863281 -27.785156 10.042969 -36.972656 20.304688 -36.972656 C 23.347656 -36.972656 31.257812 -36.117188 31.257812 -27.785156 C 31.257812 -20.996094 2.832031 -26.019531 2.832031 -8.546875 Z M 19.5 -21.851562 C 23.027344 -22.492188 25.96875 -22.921875 28.746094 -23.722656 C 30.292969 -24.148438 31.257812 -23.457031 31.257812 -21.90625 L 31.257812 -12.34375 C 31.257812 -10.578125 30.617188 -8.601562 29.652344 -7.535156 C 26.609375 -4.113281 21.90625 -1.015625 16.5625 -1.015625 C 12.023438 -1.015625 7.640625 -3.6875 7.640625 -9.511719 C 7.640625 -15.761719 12.769531 -20.625 19.5 -21.851562 Z M 19.5 -21.851562 "/></g></g></g><g fill="#ffffff" fill-opacity="1"><g transform="translate(275.027065, 233.378555)"><g><path d="M 2.671875 -18.488281 C 2.671875 -6.730469 9.9375 1.070312 20.785156 1.070312 C 26.980469 1.070312 31.738281 -1.921875 34.675781 -7.320312 L 33.769531 -7.695312 C 31.46875 -3.417969 26.234375 -0.105469 20.835938 -0.105469 C 12.609375 -0.105469 7.105469 -7.480469 7.105469 -18.59375 C 7.105469 -29.707031 12.609375 -36.972656 20.835938 -36.972656 C 29.226562 -36.972656 28.210938 -27.785156 32.539062 -27.785156 C 33.609375 -27.785156 34.300781 -28.746094 34.300781 -29.972656 C 34.300781 -34.410156 26.980469 -38.042969 20.785156 -38.042969 C 9.9375 -38.042969 2.671875 -30.242188 2.671875 -18.488281 Z M 2.671875 -18.488281 "/></g></g></g><g fill="#ffffff" fill-opacity="1"><g transform="translate(312.211458, 233.378555)"><g><path d="M 21.050781 1.070312 C 28.265625 1.070312 32.484375 -2.191406 34.941406 -7.320312 L 33.820312 -7.960938 C 32.003906 -3.953125 28.210938 -0.535156 22.28125 -0.535156 C 14.640625 -0.535156 9.511719 -5.609375 7.800781 -14.105469 C 7.480469 -15.601562 8.441406 -16.617188 10.097656 -16.5625 C 10.6875 -16.5625 11.273438 -16.5625 11.96875 -16.5625 C 23.296875 -16.5625 33.980469 -22.332031 33.980469 -30.1875 C 33.980469 -35.636719 27.835938 -38.042969 22.332031 -38.042969 C 11.539062 -38.042969 2.671875 -29.226562 2.671875 -18.59375 C 2.671875 -6.519531 10.367188 1.070312 21.050781 1.070312 Z M 7.265625 -20.195312 C 7.480469 -28.691406 12.875 -36.972656 22.121094 -36.972656 C 26.074219 -36.972656 29.652344 -34.410156 29.652344 -29.8125 C 29.652344 -22.332031 18.914062 -17.417969 11.914062 -17.417969 C 10.847656 -17.417969 9.9375 -17.523438 9.191406 -17.632812 C 8.066406 -17.792969 7.214844 -18.96875 7.265625 -20.195312 Z M 7.265625 -20.195312 "/></g></g></g><g clip-path="url(#5c72c14627)"><path fill="#fdf1e8" d="M 230.660156 44.84375 C 228.433594 63.683594 226.625 65.492188 207.785156 67.71875 C 207.824219 67.726562 207.863281 67.730469 207.902344 67.734375 L 207.90625 67.734375 C 226.632812 69.957031 228.4375 71.796875 230.660156 90.59375 C 232.890625 71.757812 234.699219 69.949219 253.535156 67.71875 C 234.699219 65.492188 232.890625 63.683594 230.660156 44.84375 Z M 230.660156 44.84375 " fill-opacity="1" fill-rule="nonzero"/></g><g clip-path="url(#8200f2d1e2)"><path fill="#fdf1e8" d="M 168.765625 275.101562 C 166.535156 293.9375 164.730469 295.746094 145.890625 297.976562 C 145.929688 297.980469 145.96875 297.984375 146.007812 297.988281 C 164.734375 300.210938 166.542969 302.050781 168.765625 320.851562 C 170.996094 302.011719 172.800781 300.203125 191.640625 297.976562 C 172.800781 295.746094 170.996094 293.9375 168.765625 275.101562 Z M 168.765625 275.101562 " fill-opacity="1" fill-rule="nonzero"/></g></svg>